<?xml version="1.0" encoding="UTF-8" standalone="no"?>
<!-- Created with Inkscape (http://www.inkscape.org/) -->

<svg
   width="192.8596mm"
   height="239.92615mm"
   viewBox="0 0 192.8596 239.92615"
   version="1.1"
   id="svg5"
   xml:space="preserve"
   inkscape:version="1.2 (dc2aedaf03, 2022-05-15)"
   sodipodi:docname="Prabalya-Logo.svg"
   xmlns:inkscape="http://www.inkscape.org/namespaces/inkscape"
   xmlns:sodipodi="http://sodipodi.sourceforge.net/DTD/sodipodi-0.dtd"
   xmlns="http://www.w3.org/2000/svg"
   xmlns:svg="http://www.w3.org/2000/svg"><sodipodi:namedview
     id="namedview7"
     pagecolor="#ffffff"
     bordercolor="#666666"
     borderopacity="1.0"
     inkscape:showpageshadow="2"
     inkscape:pageopacity="0.0"
     inkscape:pagecheckerboard="0"
     inkscape:deskcolor="#d1d1d1"
     inkscape:document-units="mm"
     showgrid="false"
     inkscape:window-width="1920"
     inkscape:window-height="1046"
     inkscape:window-x="-11"
     inkscape:window-y="-11"
     inkscape:window-maximized="1"
     inkscape:current-layer="layer1" /><defs
     id="defs2" /><g
     inkscape:label="Layer 1"
     inkscape:groupmode="layer"
     id="layer1"
     transform="translate(303.07312,-28.136002)"><g
       id="g922"
       transform="translate(-307.50708,-0.19718158)"><path
         style="fill:#ffffff;stroke:none;stroke-width:0.264583px;stroke-linecap:butt;stroke-linejoin:miter;stroke-opacity:1"
         d="m -288.76474,61.418226 79.49882,-22.542047 73.02418,14.534787 2.45165,146.923934 -4.21518,18.65327 -39.06744,19.81233 -62.47076,-12.8161 -18.14066,5.75796 -7.49155,-11.39209 -10.81016,-80.25593 z"
         id="path1047"
         transform="translate(307.50708,0.19718158)" /><path
         style="fill:#dd2b1f;stroke-width:0.352778"
         d="m 98.751259,266.95309 c -3.621242,-2.66372 -16.38664,-10.27842 -22.694423,-13.53748 -1.422347,-0.73489 -2.771722,-1.48239 -2.998611,-1.66112 -0.226885,-0.17872 -2.396895,-1.35863 -4.822242,-2.62202 -2.425347,-1.26339 -4.885972,-2.54812 -5.468056,-2.85495 -0.582083,-0.30683 -1.534583,-0.78307 -2.116666,-1.0583 -3.041749,-1.43829 -16.162242,-8.24512 -17.991666,-9.33396 -5.703944,-3.39492 -9.672874,-6.10782 -13.614823,-9.3062 -3.515043,-2.85201 -9.962849,-9.29484 -11.771632,-11.76255 -0.566568,-0.77297 -1.610785,-2.19915 -2.320482,-3.16929 C 11.890965,207.46196 8.4949385,200.42182 6.6773735,194.49214 6.3579181,193.44994 5.7612668,190.61285 5.3514823,188.1875 4.6121828,183.81189 4.6054374,183.19223 4.4794192,108.07472 4.3752361,45.973045 4.4354532,32.302753 4.8145771,31.988108 5.1283705,31.727683 5.7845068,31.7084 6.8584438,31.928041 7.7283832,32.10596 12.337339,32.64599 17.100569,33.128107 33.227256,34.760394 65.514708,34.677168 80.583204,32.964471 87.755169,32.1493 91.140739,31.450105 96.987371,29.576645 l 3.880559,-1.243461 4.40972,1.395424 c 2.42535,0.767484 5.60035,1.650045 7.05555,1.961248 12.91838,2.762654 51.68807,3.531313 72.30208,1.433481 4.76323,-0.48474 9.41322,-1.014206 10.33331,-1.176589 1.21714,-0.21481 1.77304,-0.174565 2.04052,0.147723 0.25322,0.305115 0.3331,23.866345 0.25667,75.710359 -0.10341,70.13748 -0.15385,75.5439 -0.74006,79.32434 -1.91977,12.38024 -7.59446,23.34993 -17.28225,33.40814 -7.96,8.26436 -15.73877,13.53052 -31.10332,21.05671 -4.65667,2.28102 -8.76485,4.30864 -9.12929,4.50582 -0.36445,0.19718 -2.98382,1.56029 -5.82084,3.02913 -8.13717,4.21297 -9.85523,5.13309 -13.80126,7.39141 -8.73629,4.99978 -13.11831,7.77187 -16.17192,10.23046 -1.03644,0.83447 -2.06831,1.51328 -2.29306,1.50847 -0.22475,-0.005 -1.202382,-0.59261 -2.172521,-1.30622 z m 39.818481,-38.17416 c 3.65981,-1.77169 4.45,-3.36545 4.45316,-8.98179 l 0.002,-3.49176 0.79375,1.16286 c 1.54987,2.27057 4.48953,3.01451 8.20998,2.0777 1.11257,-0.28016 1.86251,-0.28439 2.6356,-0.0149 1.97752,0.68937 2.11921,0.41301 2.11703,-4.12921 -0.004,-7.13079 -0.70155,-8.16434 -5.51381,-8.16434 -2.3613,0 -2.95103,-0.10364 -2.95103,-0.51862 0,-0.42377 0.81581,-0.53669 4.46015,-0.61737 3.7969,-0.084 4.51795,-0.19053 4.84889,-0.71609 0.28319,-0.44974 0.28304,-0.78498 -7.1e-4,-1.23472 -0.35853,-0.56861 -1.63993,-0.6313 -16.22597,-0.79375 l -15.83653,-0.17639 -0.23189,-2.34467 c -0.26408,-2.67006 -1.31597,-5.31994 -2.67525,-6.73936 -0.69809,-0.72898 -1.26615,-0.97014 -2.28521,-0.97014 -1.8415,0 -1.9913,0.66505 -0.60399,2.68144 1.42579,2.07231 2.44495,4.706 2.44495,6.31818 v 1.23094 h -12.71107 c -9.869193,0 -12.738102,-0.0986 -12.831973,-0.44098 -0.06649,-0.24253 -0.319719,-1.31409 -0.562715,-2.38125 -0.578253,-2.53945 -1.949634,-5.33986 -3.282658,-6.70331 -0.903033,-0.92365 -1.290506,-1.07628 -2.505611,-0.98701 -1.879183,0.13806 -2.046351,0.95655 -0.570459,2.7931 1.414219,1.75981 2.89542,4.97683 2.95874,6.42608 l 0.0488,1.11698 -23.106943,0.18278 c -12.708819,0.10053 -23.146631,0.21959 -23.195138,0.26458 -0.266192,0.2469 -0.02695,1.76581 0.335139,2.12791 0.316798,0.3168 4.444999,0.42334 16.404166,0.42334 H 79.17197 l -0.0054,1.4993 c -0.0028,0.82462 -0.147034,1.72304 -0.320139,1.99649 -0.862287,1.36211 0.684449,1.84673 2.916961,0.91393 1.372863,-0.57362 4.657326,-0.72001 4.965537,-0.22131 0.104645,0.16931 -1.052858,0.37981 -2.572229,0.46777 -3.138029,0.18166 -4.95178,1.04453 -6.078086,2.89158 -2.147358,3.5215 0.802943,6.61669 5.755495,6.03814 1.219366,-0.14244 3.209216,-0.24335 4.421889,-0.22423 l 2.204861,0.0348 -0.0084,-4.14058 c -0.0092,-4.52746 -0.342685,-6.58314 -1.208394,-7.44885 -0.39871,-0.39871 -1.489633,-0.61601 -3.735748,-0.74411 -5.161555,-0.29438 -3.79755,-0.88649 2.042153,-0.88649 h 5.203472 l 0.09638,6.27141 0.09637,6.27141 1.26238,0.60199 c 1.242098,0.59232 1.273259,0.58855 1.939385,-0.23408 0.644366,-0.79575 0.709351,-0.80679 1.347893,-0.22892 1.090383,0.98679 3.20544,1.08917 4.87758,0.23611 2.23007,-1.1377 4.31985,-4.27181 4.30894,-6.46221 -0.007,-1.43313 -1.24493,-3.67016 -2.57771,-4.65866 -1.41891,-1.05238 -4.379198,-1.02448 -5.839321,0.055 -1.499605,1.10871 -1.807728,1.00206 -1.807728,-0.62569 v -1.41944 l 6.085419,0.0965 6.08542,0.0965 -0.009,1.41111 c -0.005,0.77611 -0.13521,1.76908 -0.2889,2.2066 -0.4069,1.15831 0.49344,1.35719 2.88239,0.63671 2.07447,-0.62564 5.03717,-0.63757 5.23607,-0.0211 0.0692,0.21449 -0.95716,0.35362 -2.61841,0.35493 -3.14209,0.002 -4.81924,0.77424 -6.06584,2.79129 -2.49469,4.03649 2.14661,7.48475 7.79611,5.79211 0.9731,-0.29154 1.71133,-0.30531 2.55108,-0.0476 2.04447,0.62747 2.33502,0.18344 2.33502,-3.56846 0,-4.09771 -0.5079,-6.8688 -1.4276,-7.78901 -0.58034,-0.58065 -1.27831,-0.73049 -3.87348,-0.83157 -2.42003,-0.0943 -3.16559,-0.23965 -3.16559,-0.61736 0,-0.40085 0.96506,-0.49406 5.11527,-0.49406 h 5.11528 v 6.10618 c 0,6.69529 0.1496,7.26491 1.9429,7.39763 l 1.05571,0.0781 0.17639,-6.70278 0.17639,-6.70277 1.14653,-0.11055 1.14653,-0.11055 v 3.64066 c 0,2.00236 0.15562,4.18328 0.34582,4.84649 0.3927,1.36925 1.82613,3.01475 3.29391,3.78123 1.12739,0.58873 4.00649,0.763 5.97346,0.36157 l 1.32292,-0.26999 v 2.81524 c 0,1.54838 -0.15236,3.21596 -0.33857,3.70573 -0.4242,1.11573 -2.70413,2.30624 -4.91904,2.56856 -2.26449,0.2682 -4.97295,-0.86122 -4.97295,-2.0737 0,-1.00176 0.68637,-1.45218 3.08681,-2.02565 2.07368,-0.49541 2.26299,-0.92083 1.1225,-2.5225 -1.11874,-1.57114 -3.53216,-1.19407 -5.70453,0.89125 -1.89654,1.82056 -1.53748,4.13603 0.93368,6.02087 2.71613,2.0717 7.34178,2.46761 10.5703,0.90471 z M 79.487498,216.89386 c -0.414644,-0.49962 -0.31738,-0.70708 0.748831,-1.59719 1.643955,-1.37243 3.478191,-1.84312 5.285764,-1.35639 1.615116,0.4349 1.762249,0.96304 0.520125,1.86701 -2.118885,1.54204 -5.685966,2.13335 -6.55472,1.08657 z m 20.042335,-0.51589 c -1.288433,-1.06203 -2.029192,-2.164 -2.515817,-3.74256 -0.166906,-0.54143 -0.0206,-0.99424 0.484477,-1.49931 2.236836,-2.23684 7.342747,0.97163 6.556907,4.12025 -0.6016,2.41045 -2.41635,2.86022 -4.525567,1.12162 z m 9.590997,0.51589 c -0.41464,-0.49962 -0.31738,-0.70708 0.74883,-1.59719 1.64396,-1.37243 3.47819,-1.84312 5.28577,-1.35639 1.61511,0.4349 1.76224,0.96304 0.52012,1.86701 -2.11889,1.54204 -5.68597,2.13335 -6.55472,1.08657 z m 23.48106,-0.29171 c -0.83412,-0.83413 -0.86591,-1.04131 -0.86591,-5.64445 v -4.77853 h 6.87917 6.87916 v 1.21812 c 0,0.66997 -0.18209,1.61777 -0.40464,2.10622 -0.30754,0.67497 -0.30363,1.00981 0.0163,1.39529 0.36397,0.43856 0.67452,0.41805 2.29512,-0.15154 2.10569,-0.74009 3.88188,-0.93196 5.0606,-0.54667 1.47689,0.48276 0.80198,0.74107 -1.94189,0.74323 -3.19072,0.002 -4.77467,0.75824 -6.45712,3.08079 l -1.01141,1.39621 -0.10139,-3.4743 -0.1014,-3.4743 -1.31627,-0.64324 c -2.30731,-1.12755 -2.63851,-0.73909 -2.80011,3.28414 -0.12575,3.13077 -0.23265,3.59956 -1.01073,4.43235 -1.89824,2.03171 -3.76014,2.41601 -5.11948,1.05668 z m 13.3334,0.63227 c -1.28744,-0.51949 0.84331,-2.82934 3.07187,-3.33006 1.72613,-0.38784 4.24826,0.14881 4.24826,0.90393 0,0.73032 -4.12493,2.66463 -5.61259,2.63192 -0.69662,-0.0153 -1.46501,-0.10793 -1.70754,-0.20579 z m -94.976687,10.26484 c 0.189227,-0.4977 0.344047,-2.97244 0.344047,-5.49942 v -4.5945 l 1.074233,0.90391 c 2.361279,1.98688 5.226018,2.05634 7.500105,0.18185 3.433818,-2.83045 3.540731,-6.20708 0.303501,-9.58561 -2.238142,-2.33584 -4.813035,-2.43186 -7.491504,-0.27938 -1.342569,1.07891 -1.739113,1.07347 -1.739113,-0.0239 0,-0.91738 -1.164509,-1.44102 -2.269959,-1.02073 l -0.905041,0.3441 v 9.53892 9.53892 l 1.146528,0.69905 c 1.473867,0.89863 1.62397,0.88366 2.037203,-0.20322 z m 2.108973,-11.34028 c -1.823956,-0.9332 -1.75949,-1.68026 0.312889,-3.62591 3.221937,-3.02491 5.437177,-3.4682 6.431044,-1.28691 0.811925,1.78199 -1.732728,4.8338 -4.457686,5.34613 -0.662407,0.12454 -1.509854,-0.0361 -2.286247,-0.43331 z m 14.462851,0.83255 c 0,-1.62028 0.179582,-3.48559 0.399073,-4.14514 0.585047,-1.758 3.049168,-4.19778 4.239669,-4.19778 1.69684,0 1.664173,1.36731 -0.0533,2.23078 -0.454057,0.22828 -0.884347,0.59351 -0.956204,0.81162 -0.195266,0.5927 1.629325,2.60205 2.362799,2.60205 0.990181,0 2.827408,-2.31538 2.827408,-3.56325 0,-2.56068 -1.768711,-3.68295 -5.258632,-3.33668 -1.279349,0.12693 -3.262704,0.21268 -4.407457,0.19054 -1.374334,-0.0266 -2.181402,0.11751 -2.375849,0.42415 -0.161964,0.25543 -0.296912,2.71507 -0.299882,5.46588 -0.0054,4.98579 -0.0025,5.00377 0.924119,5.73264 0.511234,0.40214 1.304984,0.73116 1.763888,0.73116 0.810698,0 0.834369,-0.0836 0.834369,-2.94597 z m 34.890023,-27.39292 c 0.63103,-0.48507 1.88924,-1.5265 2.79601,-2.3143 0.90678,-0.78779 2.06528,-1.74029 2.57445,-2.11666 3.82177,-2.825 17.07636,-14.43717 21.92152,-19.20515 5.2975,-5.21313 6.82226,-7.03296 5.45205,-6.50716 -0.82744,0.31751 -4.72541,-4.46307 -4.25703,-5.22094 0.14031,-0.22702 0.0239,-0.24378 -0.32194,-0.0464 -0.29793,0.17006 -1.45175,1.49982 -2.56403,2.95503 -5.23428,6.84805 -18.9864,18.34444 -21.94384,18.34444 -1.1436,0 -3.48981,-3.00283 -4.548,-5.82083 -0.97139,-2.58685 -1.932776,-3.94138 -2.533782,-3.56994 -0.195651,0.12092 -0.628879,1.08826 -0.962724,2.14965 -0.934183,2.97 -2.708031,6.19286 -3.747925,6.80949 -0.898447,0.53277 -1.022914,0.50508 -2.932525,-0.65226 -1.096839,-0.66476 -2.738367,-1.79995 -3.647838,-2.52266 -0.909472,-0.72271 -2.464626,-1.9416 -3.455892,-2.70864 -2.168137,-1.67771 -8.736676,-8.23717 -9.791651,-9.77811 -0.414295,-0.60514 -1.388265,-1.90619 -2.164376,-2.89122 -2.545373,-3.23056 -4.968046,-6.56671 -5.811675,-8.00298 -0.455867,-0.77611 -1.105754,-1.72861 -1.444198,-2.11667 -1.494123,-1.71315 -9.491063,-16.58671 -9.498464,-17.66626 -0.0014,-0.20908 -0.422077,-1.39971 -0.934766,-2.64583 -1.531958,-3.72353 -2.948216,-7.85689 -2.951092,-8.61278 -0.0014,-0.38965 -0.322971,-1.74033 -0.714424,-3.00151 -0.391449,-1.26119 -1.207332,-4.43619 -1.813069,-7.05556 -1.043051,-4.51044 -1.102964,-5.16393 -1.132025,-12.347223 -0.02911,-7.193298 0.0098,-7.661042 0.754175,-9.063591 0.431673,-0.813379 1.356621,-1.914973 2.055445,-2.447989 1.182773,-0.902144 1.554808,-0.979307 5.383117,-1.116485 2.261892,-0.08105 4.233457,-0.259256 4.381257,-0.396014 0.1478,-0.136758 -0.623436,-1.411496 -1.713854,-2.832753 -2.059192,-2.683961 -2.964593,-4.414506 -2.964593,-5.666394 0,-0.402601 0.717363,-1.498921 1.594143,-2.436269 l 1.594142,-1.704266 -1.764354,-1.89659 c -0.970396,-1.043129 -1.767134,-2.191389 -1.770532,-2.551698 -0.0038,-0.408997 -0.188066,-0.585308 -0.490343,-0.469311 -1.856144,0.712269 -5.85258,1.70948 -8.669595,2.163283 -1.920282,0.309343 -3.565041,0.770569 -3.880555,1.088185 -0.468464,0.471579 -0.53564,1.734619 -0.464718,8.73711 0.0456,4.50221 0.238492,9.535213 0.428646,11.184449 0.190154,1.649236 0.51743,5.038139 0.727283,7.530899 0.961743,11.424327 5.966926,30.748557 9.992176,38.578247 0.67799,1.31879 1.555451,3.11217 1.94992,3.9853 0.862707,1.90955 3.606979,6.97282 4.971309,9.17222 0.541616,0.87313 1.581767,2.69875 2.311449,4.05695 0.729682,1.35819 1.642441,2.91823 2.028349,3.46676 0.767972,1.09158 0.566035,1.52447 -0.796209,1.70683 -1.67772,0.2246 -1.054594,1.43871 2.982309,5.81077 4.489129,4.86183 12.138684,11.85233 19.249079,17.59064 1.202111,0.97013 3.012404,2.47826 4.02288,3.35138 3.316128,2.86538 8.730371,7.22388 9.48467,7.63523 0.85728,0.4675 1.446,0.28642 3.03164,-0.93245 z M 92.146293,146.20695 c 0.05379,-9.21632 0.01714,-17.09002 -0.08147,-17.49712 -0.115446,-0.47662 -1.507987,-1.54428 -3.911078,-2.99861 -5.857395,-3.54483 -8.406112,-5.2243 -8.685279,-5.72314 -0.346445,-0.61906 -1.047746,-6.30847 -0.807254,-6.54896 0.104602,-0.1046 0.540155,0.0298 0.967895,0.29875 0.866101,0.54452 7.98915,4.41999 11.537427,6.27722 1.261181,0.66013 2.451806,1.35395 2.645834,1.54184 0.19801,0.19174 0.430159,3.30748 0.529166,7.10206 l 0.176389,6.76046 1.763889,1.33503 c 2.251407,1.704 3.34234,1.72284 5.628898,0.0972 0.96034,-0.68278 1.87021,-1.43684 2.02194,-1.67569 0.32289,-0.50832 0.38786,-11.93091 0.0725,-12.75265 -0.11777,-0.30691 -0.41615,-0.55802 -0.66306,-0.55802 -0.24691,0 -1.0534,-0.75406 -1.79219,-1.6757 -0.7388,-0.92163 -2.067619,-2.50515 -2.952922,-3.51893 -0.885303,-1.01379 -2.40339,-2.8037 -3.373529,-3.97759 -0.970139,-1.17389 -2.488156,-2.96381 -3.373367,-3.97759 -0.885215,-1.01379 -1.91709,-2.26039 -2.293056,-2.77024 -0.375969,-0.50984 -1.813087,-2.25609 -3.193598,-3.88055 -7.570261,-8.908002 -9.392927,-11.132901 -9.641145,-11.768801 -0.237998,-0.609713 -0.440365,-0.440901 -1.548937,1.292074 -0.701344,1.096377 -1.526618,2.681982 -1.833944,3.523565 -2.891998,7.919502 -2.739866,7.270602 -2.757209,11.760702 -0.01549,4.0081 0.05197,4.42103 1.267704,7.76111 1.700745,4.6726 2.157201,8.39619 1.944013,15.85847 -0.15192,5.31756 -0.284088,6.3609 -1.141694,9.01237 -0.533439,1.64923 -1.269072,3.5876 -1.634744,4.30747 -0.888711,1.74956 -0.840924,2.25575 0.301297,3.19139 0.531385,0.43528 1.444307,1.26767 2.028715,1.84975 0.584408,0.58208 1.697451,1.52348 2.473431,2.09199 0.775977,0.56852 1.887118,1.4658 2.469201,1.99397 5.541218,5.02795 12.236682,10.24227 13.009936,10.13194 l 0.748397,-0.10679 z m 19.773127,13.53349 c 2.26487,-1.86991 4.41535,-3.8606 4.77884,-4.42376 0.6914,-1.07117 0.6698,-2.76487 -0.0723,-5.67015 -0.52716,-2.06383 0.12098,-1.55378 0.99483,0.78288 1.12395,3.00539 1.44926,3.17608 3.30075,1.73182 2.67609,-2.08749 5.96713,-5.26025 4.62397,-4.45778 -0.20329,0.12146 -0.53486,0.11224 -0.73681,-0.0205 -0.52841,-0.34726 -4.7144,-5.27401 -4.7144,-5.54868 0,-0.63863 -1.17865,-2.59742 -1.45876,-2.4243 -0.36542,0.22584 -1.71005,-1.13542 -4.53846,-4.59456 -1.06715,-1.30513 -2.8607,-3.41599 -3.98567,-4.69081 -1.19005,-1.34857 -1.96549,-2.52611 -1.85431,-2.81585 0.1437,-0.37446 -0.005,-0.43967 -0.60043,-0.2629 -1.68958,0.50179 -1.67348,0.3253 -1.67348,18.34052 0,9.34093 0.10584,17.08933 0.23519,17.21868 0.6542,0.6542 1.9402,-0.0597 5.70103,-3.16465 z m 30.15046,-15.7539 c 0.64832,-1.01009 1.66527,-2.78904 2.25988,-3.95321 0.59461,-1.16416 1.34098,-2.59291 1.6586,-3.175 0.85462,-1.56618 4.79762,-11.09398 4.79762,-11.59288 0,-0.23618 0.63839,-2.55166 1.41864,-5.14551 1.42735,-4.74504 2.30867,-8.84805 3.30024,-15.36438 1.63081,-10.71728 1.9468,-14.289917 2.21594,-25.053527 0.25742,-10.294902 0.0786,-11.653679 -1.58237,-12.019986 -0.5185,-0.114352 -1.41898,-0.341421 -2.00106,-0.504599 -0.58208,-0.163174 -1.93146,-0.397298 -2.99861,-0.520273 -5.67323,-0.653761 -12.52084,-3.386963 -18.85637,-7.52647 -2.10711,-1.376739 -3.98267,-2.409489 -4.16791,-2.295001 -0.18525,0.114489 -0.24993,0.743604 -0.14372,1.398034 0.17304,1.066329 0.10767,1.189873 -0.62952,1.189873 -1.56547,0 -5.53058,-1.457681 -9.9953,-3.674544 -5.46004,-2.711068 -10.99057,-5.72455 -13.12663,-7.152454 -0.87312,-0.583665 -2.38513,-1.502016 -3.36001,-2.040779 l -1.77251,-0.979569 -2.637208,1.318404 c -1.450467,0.725122 -2.875336,1.522534 -3.166378,1.772027 -0.693568,0.594553 -6.286796,3.546547 -12.799095,6.755108 -5.160892,2.542731 -9.061841,4.001807 -10.699129,4.001807 -0.735912,0 -0.834464,-0.147562 -0.756591,-1.132844 0.107544,-1.36064 -0.814201,-1.745487 -1.876986,-0.783679 -0.852724,0.771703 -0.857166,1.106972 -0.0182,1.37325 0.710601,0.225535 3.925006,4.112968 3.925006,4.746815 0,0.836034 2.395308,0.0297 7.761111,-2.612588 l 3.351388,-1.650336 4.427876,0.145941 c 4.055985,0.133684 4.583205,0.230483 6.277317,1.152534 1.017196,0.553625 2.873386,2.015533 4.124872,3.248682 2.499339,2.46272 3.028097,2.529586 4.244487,0.536769 0.703,-1.151725 3.26033,-3.103771 5.25043,-4.007729 1.11204,-0.505118 2.3099,-0.650254 5.41654,-0.65629 l 3.98875,-0.0078 3.24319,1.55606 c 3.82836,1.836812 12.59473,5.303954 14.3557,5.677744 2.0503,0.435204 5.03364,2.124244 6.98052,3.95207 1.6239,1.524593 1.83746,1.889369 1.82642,3.119604 -0.014,1.561271 -0.23616,2.010773 -2.36875,4.79293 -1.3464,1.756502 -1.94128,3.44327 -1.23472,3.500981 0.14552,0.01189 1.85208,0.06215 3.79236,0.111686 5.37566,0.137252 6.96469,1.270395 7.81368,5.571956 1.42254,7.207518 -0.20119,25.646943 -2.99466,34.008073 -0.3842,1.14996 -0.88713,2.80048 -1.1176,3.66782 -0.23048,0.86733 -1.02629,2.85171 -1.76846,4.40972 -0.74217,1.55801 -1.83547,3.86462 -2.42956,5.1258 -0.59408,1.26118 -1.63527,3.24556 -2.31374,4.40972 -1.34831,2.31352 -2.12609,4.20608 -1.59321,3.87674 0.18187,-0.1124 0.77082,0.41985 1.30878,1.18277 0.53796,0.76292 1.09332,1.3187 1.23415,1.23507 0.14082,-0.0836 0.78648,-0.97849 1.4348,-1.98859 z m -17.92482,-19.56362 c 0.6535,-4.27647 1.50327,-7.7719 2.72299,-11.2007 1.3118,-3.68763 1.36862,-4.02086 1.143,-6.70277 -0.64505,-7.667806 -5.3954,-17.531967 -10.96858,-22.776429 -4.94026,-4.648873 -9.65325,-6.983151 -15.55443,-7.703904 -4.907249,-0.599356 -11.560589,1.026576 -15.131557,3.69782 l -1.105888,0.827253 1.811444,1.887379 c 0.996294,1.038059 3.240193,3.611834 4.986443,5.719502 1.74625,2.107667 4.365625,5.223361 5.820833,6.923764 1.455208,1.700407 3.518955,4.147778 4.586115,5.438605 1.06715,1.29083 2.4618,2.95305 3.09922,3.69382 0.63742,0.74077 1.6693,1.98129 2.29305,2.75671 0.62377,0.77543 2.36443,2.86863 3.86814,4.65156 1.50372,1.78293 2.73403,3.46463 2.73403,3.73711 0,0.69209 0.13022,0.65441 2.69494,-0.77986 1.25423,-0.70141 2.36522,-1.19049 2.46886,-1.08685 0.21979,0.21979 -0.41896,5.77409 -0.76862,6.68365 -0.16075,0.41816 -0.0675,0.61737 0.289,0.61737 0.28949,0 0.80645,0.43656 1.1488,0.97013 0.80745,1.25846 3.09088,3.89267 3.41145,3.93553 0.13673,0.0183 0.33957,-0.56209 0.45076,-1.28969 z"
         id="path926" /><path
         style="fill:#010939;stroke-width:0.352778"
         d="m 98.751259,266.95309 c -3.621242,-2.66372 -16.38664,-10.27842 -22.694423,-13.53748 -1.422347,-0.73489 -2.771722,-1.48239 -2.998611,-1.66112 -0.226885,-0.17872 -2.396895,-1.35863 -4.822242,-2.62202 -2.425347,-1.26339 -4.885972,-2.54812 -5.468056,-2.85495 -0.582083,-0.30683 -1.534583,-0.78307 -2.116666,-1.0583 -3.041749,-1.43829 -16.162242,-8.24512 -17.991666,-9.33396 -5.703944,-3.39492 -9.672874,-6.10782 -13.614823,-9.3062 -3.515043,-2.85201 -9.962849,-9.29484 -11.771632,-11.76255 -0.566568,-0.77297 -1.610785,-2.19915 -2.320482,-3.16929 C 11.890965,207.46196 8.4949385,200.42182 6.6773735,194.49214 6.3579181,193.44994 5.7612668,190.61285 5.3514823,188.1875 4.6121828,183.81189 4.6054374,183.19223 4.4794192,108.07472 4.3752361,45.973045 4.4354532,32.302753 4.8145771,31.988108 5.1283705,31.727683 5.7845068,31.7084 6.8584438,31.928041 7.7283832,32.10596 12.337339,32.64599 17.100569,33.128107 33.227256,34.760394 65.514708,34.677168 80.583204,32.964471 87.755169,32.1493 91.140739,31.450105 96.987371,29.576645 l 3.880559,-1.243461 4.40972,1.395424 c 2.42535,0.767484 5.60035,1.650045 7.05555,1.961248 12.91838,2.762654 51.68807,3.531313 72.30208,1.433481 4.76323,-0.48474 9.41322,-1.014206 10.33331,-1.176589 1.21714,-0.21481 1.77304,-0.174565 2.04052,0.147723 0.25322,0.305115 0.3331,23.866345 0.25667,75.710359 -0.10341,70.13748 -0.15385,75.5439 -0.74006,79.32434 -1.91977,12.38024 -7.59446,23.34993 -17.28225,33.40814 -7.96,8.26436 -15.73877,13.53052 -31.10332,21.05671 -4.65667,2.28102 -8.76485,4.30864 -9.12929,4.50582 -0.36445,0.19718 -2.98382,1.56029 -5.82084,3.02913 -8.13717,4.21297 -9.85523,5.13309 -13.80126,7.39141 -8.73629,4.99978 -13.11831,7.77187 -16.17192,10.23046 -1.03644,0.83447 -2.06831,1.51328 -2.29306,1.50847 -0.22475,-0.005 -1.202382,-0.59261 -2.172521,-1.30622 z m 39.818481,-38.17416 c 3.65981,-1.77169 4.45,-3.36545 4.45316,-8.98179 l 0.002,-3.49176 0.79375,1.16286 c 1.54987,2.27057 4.48953,3.01451 8.20998,2.0777 1.11257,-0.28016 1.86251,-0.28439 2.6356,-0.0149 1.97752,0.68937 2.11921,0.41301 2.11703,-4.12921 -0.004,-7.13079 -0.70155,-8.16434 -5.51381,-8.16434 -2.3613,0 -2.95103,-0.10364 -2.95103,-0.51862 0,-0.42377 0.81581,-0.53669 4.46015,-0.61737 3.7969,-0.084 4.51795,-0.19053 4.84889,-0.71609 0.28319,-0.44974 0.28304,-0.78498 -7.1e-4,-1.23472 -0.35853,-0.56861 -1.63993,-0.6313 -16.22597,-0.79375 l -15.83653,-0.17639 -0.23189,-2.34467 c -0.26408,-2.67006 -1.31597,-5.31994 -2.67525,-6.73936 -0.69809,-0.72898 -1.26615,-0.97014 -2.28521,-0.97014 -1.8415,0 -1.9913,0.66505 -0.60399,2.68144 1.42579,2.07231 2.44495,4.706 2.44495,6.31818 v 1.23094 h -12.71107 c -9.869193,0 -12.738102,-0.0986 -12.831973,-0.44098 -0.06649,-0.24253 -0.319719,-1.31409 -0.562715,-2.38125 -0.578253,-2.53945 -1.949634,-5.33986 -3.282658,-6.70331 -0.903033,-0.92365 -1.290506,-1.07628 -2.505611,-0.98701 -1.879183,0.13806 -2.046351,0.95655 -0.570459,2.7931 1.414219,1.75981 2.89542,4.97683 2.95874,6.42608 l 0.0488,1.11698 -23.106943,0.18278 c -12.708819,0.10053 -23.146631,0.21959 -23.195138,0.26458 -0.266192,0.2469 -0.02695,1.76581 0.335139,2.12791 0.316798,0.3168 4.444999,0.42334 16.404166,0.42334 H 79.17197 l -0.0054,1.4993 c -0.0028,0.82462 -0.147034,1.72304 -0.320139,1.99649 -0.862287,1.36211 0.684449,1.84673 2.916961,0.91393 1.372863,-0.57362 4.657326,-0.72001 4.965537,-0.22131 0.104645,0.16931 -1.052858,0.37981 -2.572229,0.46777 -3.138029,0.18166 -4.95178,1.04453 -6.078086,2.89158 -2.147358,3.5215 0.802943,6.61669 5.755495,6.03814 1.219366,-0.14244 3.209216,-0.24335 4.421889,-0.22423 l 2.204861,0.0348 -0.0084,-4.14058 c -0.0092,-4.52746 -0.342685,-6.58314 -1.208394,-7.44885 -0.39871,-0.39871 -1.489633,-0.61601 -3.735748,-0.74411 -5.161555,-0.29438 -3.79755,-0.88649 2.042153,-0.88649 h 5.203472 l 0.09638,6.27141 0.09637,6.27141 1.26238,0.60199 c 1.242098,0.59232 1.273259,0.58855 1.939385,-0.23408 0.644366,-0.79575 0.709351,-0.80679 1.347893,-0.22892 1.090383,0.98679 3.20544,1.08917 4.87758,0.23611 2.23007,-1.1377 4.31985,-4.27181 4.30894,-6.46221 -0.007,-1.43313 -1.24493,-3.67016 -2.57771,-4.65866 -1.41891,-1.05238 -4.379198,-1.02448 -5.839321,0.055 -1.499605,1.10871 -1.807728,1.00206 -1.807728,-0.62569 v -1.41944 l 6.085419,0.0965 6.08542,0.0965 -0.009,1.41111 c -0.005,0.77611 -0.13521,1.76908 -0.2889,2.2066 -0.4069,1.15831 0.49344,1.35719 2.88239,0.63671 2.07447,-0.62564 5.03717,-0.63757 5.23607,-0.0211 0.0692,0.21449 -0.95716,0.35362 -2.61841,0.35493 -3.14209,0.002 -4.81924,0.77424 -6.06584,2.79129 -2.49469,4.03649 2.14661,7.48475 7.79611,5.79211 0.9731,-0.29154 1.71133,-0.30531 2.55108,-0.0476 2.04447,0.62747 2.33502,0.18344 2.33502,-3.56846 0,-4.09771 -0.5079,-6.8688 -1.4276,-7.78901 -0.58034,-0.58065 -1.27831,-0.73049 -3.87348,-0.83157 -2.42003,-0.0943 -3.16559,-0.23965 -3.16559,-0.61736 0,-0.40085 0.96506,-0.49406 5.11527,-0.49406 h 5.11528 v 6.10618 c 0,6.69529 0.1496,7.26491 1.9429,7.39763 l 1.05571,0.0781 0.17639,-6.70278 0.17639,-6.70277 1.14653,-0.11055 1.14653,-0.11055 v 3.64066 c 0,2.00236 0.15562,4.18328 0.34582,4.84649 0.3927,1.36925 1.82613,3.01475 3.29391,3.78123 1.12739,0.58873 4.00649,0.763 5.97346,0.36157 l 1.32292,-0.26999 v 2.81524 c 0,1.54838 -0.15236,3.21596 -0.33857,3.70573 -0.4242,1.11573 -2.70413,2.30624 -4.91904,2.56856 -2.26449,0.2682 -4.97295,-0.86122 -4.97295,-2.0737 0,-1.00176 0.68637,-1.45218 3.08681,-2.02565 2.07368,-0.49541 2.26299,-0.92083 1.1225,-2.5225 -1.11874,-1.57114 -3.53216,-1.19407 -5.70453,0.89125 -1.89654,1.82056 -1.53748,4.13603 0.93368,6.02087 2.71613,2.0717 7.34178,2.46761 10.5703,0.90471 z M 79.487498,216.89386 c -0.414644,-0.49962 -0.31738,-0.70708 0.748831,-1.59719 1.643955,-1.37243 3.478191,-1.84312 5.285764,-1.35639 1.615116,0.4349 1.762249,0.96304 0.520125,1.86701 -2.118885,1.54204 -5.685966,2.13335 -6.55472,1.08657 z m 20.042335,-0.51589 c -1.288433,-1.06203 -2.029192,-2.164 -2.515817,-3.74256 -0.166906,-0.54143 -0.0206,-0.99424 0.484477,-1.49931 2.236836,-2.23684 7.342747,0.97163 6.556907,4.12025 -0.6016,2.41045 -2.41635,2.86022 -4.525567,1.12162 z m 9.590997,0.51589 c -0.41464,-0.49962 -0.31738,-0.70708 0.74883,-1.59719 1.64396,-1.37243 3.47819,-1.84312 5.28577,-1.35639 1.61511,0.4349 1.76224,0.96304 0.52012,1.86701 -2.11889,1.54204 -5.68597,2.13335 -6.55472,1.08657 z m 23.48106,-0.29171 c -0.83412,-0.83413 -0.86591,-1.04131 -0.86591,-5.64445 v -4.77853 h 6.87917 6.87916 v 1.21812 c 0,0.66997 -0.18209,1.61777 -0.40464,2.10622 -0.30754,0.67497 -0.30363,1.00981 0.0163,1.39529 0.36397,0.43856 0.67452,0.41805 2.29512,-0.15154 2.10569,-0.74009 3.88188,-0.93196 5.0606,-0.54667 1.47689,0.48276 0.80198,0.74107 -1.94189,0.74323 -3.19072,0.002 -4.77467,0.75824 -6.45712,3.08079 l -1.01141,1.39621 -0.10139,-3.4743 -0.1014,-3.4743 -1.31627,-0.64324 c -2.30731,-1.12755 -2.63851,-0.73909 -2.80011,3.28414 -0.12575,3.13077 -0.23265,3.59956 -1.01073,4.43235 -1.89824,2.03171 -3.76014,2.41601 -5.11948,1.05668 z m 13.3334,0.63227 c -1.28744,-0.51949 0.84331,-2.82934 3.07187,-3.33006 1.72613,-0.38784 4.24826,0.14881 4.24826,0.90393 0,0.73032 -4.12493,2.66463 -5.61259,2.63192 -0.69662,-0.0153 -1.46501,-0.10793 -1.70754,-0.20579 z m -94.976687,10.26484 c 0.189227,-0.4977 0.344047,-2.97244 0.344047,-5.49942 v -4.5945 l 1.074233,0.90391 c 2.361279,1.98688 5.226018,2.05634 7.500105,0.18185 3.433818,-2.83045 3.540731,-6.20708 0.303501,-9.58561 -2.238142,-2.33584 -4.813035,-2.43186 -7.491504,-0.27938 -1.342569,1.07891 -1.739113,1.07347 -1.739113,-0.0239 0,-0.91738 -1.164509,-1.44102 -2.269959,-1.02073 l -0.905041,0.3441 v 9.53892 9.53892 l 1.146528,0.69905 c 1.473867,0.89863 1.62397,0.88366 2.037203,-0.20322 z m 2.108973,-11.34028 c -1.823956,-0.9332 -1.75949,-1.68026 0.312889,-3.62591 3.221937,-3.02491 5.437177,-3.4682 6.431044,-1.28691 0.811925,1.78199 -1.732728,4.8338 -4.457686,5.34613 -0.662407,0.12454 -1.509854,-0.0361 -2.286247,-0.43331 z m 14.462851,0.83255 c 0,-1.62028 0.179582,-3.48559 0.399073,-4.14514 0.585047,-1.758 3.049168,-4.19778 4.239669,-4.19778 1.69684,0 1.664173,1.36731 -0.0533,2.23078 -0.454057,0.22828 -0.884347,0.59351 -0.956204,0.81162 -0.195266,0.5927 1.629325,2.60205 2.362799,2.60205 0.990181,0 2.827408,-2.31538 2.827408,-3.56325 0,-2.56068 -1.768711,-3.68295 -5.258632,-3.33668 -1.279349,0.12693 -3.262704,0.21268 -4.407457,0.19054 -1.374334,-0.0266 -2.181402,0.11751 -2.375849,0.42415 -0.161964,0.25543 -0.296912,2.71507 -0.299882,5.46588 -0.0054,4.98579 -0.0025,5.00377 0.924119,5.73264 0.511234,0.40214 1.304984,0.73116 1.763888,0.73116 0.810698,0 0.834369,-0.0836 0.834369,-2.94597 z m 34.890023,-27.39292 c 0.63103,-0.48507 1.88924,-1.5265 2.79601,-2.3143 0.90678,-0.78779 2.06528,-1.74029 2.57445,-2.11666 0.50917,-0.37638 4.31467,-3.54182 8.45666,-7.03432 8.59816,-7.24991 18.40863,-16.63842 19.38396,-18.55021 0.36328,-0.71209 0.91713,-1.39318 1.23077,-1.51354 0.83511,-0.32047 0.47911,-1.39168 -0.54206,-1.63107 -0.51814,-0.12147 -0.91695,-0.49055 -0.96971,-0.89741 -0.099,-0.76349 3.53073,-7.44028 5.0227,-9.2391 1.44858,-1.74651 2.38445,-3.21727 3.76437,-5.91589 0.69451,-1.35819 1.52498,-2.94569 1.8455,-3.52778 0.84679,-1.53782 4.80288,-11.08678 4.80288,-11.59288 0,-0.23618 0.63839,-2.55166 1.41864,-5.14551 1.42735,-4.74504 2.30867,-8.84805 3.30024,-15.36438 1.63081,-10.71728 1.9468,-14.289917 2.21594,-25.053527 0.25742,-10.294902 0.0786,-11.653679 -1.58237,-12.019986 -0.5185,-0.114352 -1.41898,-0.341421 -2.00106,-0.504599 -0.58208,-0.163174 -1.93146,-0.397298 -2.99861,-0.520273 -5.67323,-0.653761 -12.52084,-3.386963 -18.85637,-7.52647 -2.10711,-1.376739 -3.98267,-2.409489 -4.16791,-2.295001 -0.18525,0.114489 -0.24993,0.743604 -0.14372,1.398034 0.17304,1.066329 0.10767,1.189873 -0.62952,1.189873 -1.56547,0 -5.53058,-1.457681 -9.9953,-3.674544 -5.46004,-2.711068 -10.99057,-5.72455 -13.12663,-7.152454 -0.87312,-0.583665 -2.38513,-1.502016 -3.36001,-2.040779 l -1.77251,-0.979569 -2.637208,1.318404 c -1.450467,0.725122 -2.875336,1.522534 -3.166378,1.772027 -0.693568,0.594553 -6.286796,3.546547 -12.799095,6.755108 -5.160892,2.542731 -9.061841,4.001807 -10.699129,4.001807 -0.737757,0 -0.834661,-0.146817 -0.756591,-1.146313 0.07313,-0.936188 -0.0485,-1.166038 -0.663505,-1.253923 -0.476652,-0.06811 -1.016243,0.226997 -1.470155,0.804056 -0.936234,1.190223 -5.239279,3.947769 -8.360135,5.357469 -3.1354,1.416272 -7.882703,2.764702 -12.152372,3.451772 -1.921097,0.309139 -3.564907,0.769849 -3.880555,1.087603 -0.468464,0.471579 -0.53564,1.734619 -0.464718,8.73711 0.0456,4.50221 0.238492,9.535213 0.428646,11.184449 0.190154,1.649236 0.51743,5.038139 0.727283,7.530899 0.961743,11.424327 5.966926,30.748557 9.992176,38.578247 0.67799,1.31879 1.555451,3.11217 1.94992,3.9853 0.862707,1.90955 3.606979,6.97282 4.971309,9.17222 0.541616,0.87313 1.581767,2.69875 2.311449,4.05695 0.729682,1.35819 1.642441,2.91823 2.028349,3.46676 0.767972,1.09158 0.566035,1.52447 -0.796209,1.70683 -1.67772,0.2246 -1.054594,1.43871 2.982309,5.81077 4.489129,4.86183 12.138684,11.85233 19.249079,17.59064 1.202111,0.97013 3.012404,2.47826 4.02288,3.35138 3.316128,2.86538 8.730371,7.22388 9.48467,7.63523 0.85728,0.4675 1.446,0.28642 3.03164,-0.93245 z M 90.241664,173.67345 c -2.735841,-1.78569 -3.847698,-2.67033 -8.531818,-6.78829 -3.014232,-2.6499 -8.409167,-8.65364 -10.342513,-11.50962 -0.461063,-0.68109 -1.562417,-2.18921 -2.447455,-3.35139 -0.885035,-1.16217 -1.98228,-2.74804 -2.438316,-3.52415 -0.456039,-0.77611 -1.106064,-1.72861 -1.444508,-2.11667 -1.494123,-1.71315 -9.491063,-16.58671 -9.498464,-17.66626 -0.0014,-0.20908 -0.422077,-1.39971 -0.934766,-2.64583 -1.531958,-3.72353 -2.948216,-7.85689 -2.951092,-8.61278 -0.0014,-0.38965 -0.322971,-1.74033 -0.714424,-3.00151 -0.391449,-1.26119 -1.207332,-4.43619 -1.813069,-7.05556 -1.043051,-4.51044 -1.102964,-5.16393 -1.132025,-12.347223 -0.02911,-7.193298 0.0098,-7.661042 0.754175,-9.063591 0.431673,-0.813379 1.356621,-1.914973 2.055445,-2.447989 1.182773,-0.902144 1.554808,-0.979307 5.383117,-1.116485 2.261892,-0.08105 4.233457,-0.259256 4.381257,-0.396014 0.1478,-0.136758 -0.623436,-1.411496 -1.713854,-2.832753 -2.049608,-2.67147 -2.964593,-4.414516 -2.964593,-5.647545 0,-0.761157 3.051249,-4.36927 4.560658,-5.392988 0.499068,-0.338484 1.701147,-0.869121 2.671286,-1.179195 0.970139,-0.310071 3.192639,-1.082178 4.938889,-1.715788 1.74625,-0.633614 4.048125,-1.440064 5.115277,-1.792111 1.067153,-0.352051 3.527778,-1.420379 5.468056,-2.374064 l 3.527777,-1.733975 4.427876,0.147221 c 4.054623,0.134811 4.583776,0.232073 6.277317,1.153814 1.017196,0.553625 2.873386,2.015533 4.124872,3.248682 2.499339,2.46272 3.028101,2.529586 4.244491,0.536769 0.703,-1.151725 3.26033,-3.103771 5.25043,-4.007729 1.11204,-0.505118 2.3099,-0.650254 5.41654,-0.65629 l 3.98875,-0.0078 3.24319,1.55606 c 3.82836,1.836812 12.59473,5.303954 14.3557,5.677744 2.0503,0.435204 5.03364,2.124244 6.98052,3.95207 1.6239,1.524593 1.83746,1.889369 1.82642,3.119604 -0.014,1.561271 -0.23616,2.010773 -2.36875,4.79293 -1.3464,1.756502 -1.94128,3.44327 -1.23472,3.500981 0.14552,0.01189 1.85208,0.06215 3.79236,0.111686 5.37566,0.137252 6.96469,1.270395 7.81368,5.571956 1.42254,7.207518 -0.20119,25.646943 -2.99466,34.008073 -0.3842,1.14996 -0.88178,2.78064 -1.10573,3.62372 -0.41377,1.55772 -2.67377,6.62038 -4.6701,10.46156 -0.60503,1.16417 -1.91204,3.70417 -2.90446,5.64445 -0.99242,1.94028 -2.27002,4.24215 -2.83911,5.11528 -1.92466,2.95291 -5.19845,7.40833 -5.44355,7.40833 -0.13398,0 -1.02488,1.07156 -1.97979,2.38125 -4.81368,6.60217 -19.27264,18.78542 -22.29434,18.78542 -1.14057,0 -3.48909,-3.00268 -4.55271,-5.82084 -1.34182,-3.55523 -2.295336,-4.50323 -2.927369,-2.91041 -0.173228,0.43656 -0.826473,2.11287 -1.451656,3.72513 -1.092154,2.81655 -2.696552,5.00613 -3.668186,5.00613 -0.25122,0 -1.707448,-0.81632 -3.236055,-1.81405 z m 1.904629,-27.4665 c 0.05379,-9.21632 0.01714,-17.09002 -0.08147,-17.49712 -0.115446,-0.47662 -1.507987,-1.54428 -3.911078,-2.99861 -5.857395,-3.54483 -8.406112,-5.2243 -8.685279,-5.72314 -0.346445,-0.61906 -1.047746,-6.30847 -0.807254,-6.54896 0.104602,-0.1046 0.540155,0.0298 0.967895,0.29875 0.866101,0.54452 7.98915,4.41999 11.537427,6.27722 1.261181,0.66013 2.451806,1.35395 2.645834,1.54184 0.19801,0.19174 0.430159,3.30748 0.529166,7.10206 l 0.176389,6.76046 1.763889,1.33503 c 2.251407,1.704 3.34234,1.72284 5.628898,0.0972 0.96034,-0.68278 1.87646,-1.43684 2.03582,-1.67569 0.15937,-0.23886 0.26113,-3.38587 0.22615,-6.99337 -0.035,-3.6075 0.0527,-6.74727 0.19485,-6.97727 0.14215,-0.23 0.84164,-0.6974 1.55442,-1.03866 0.71279,-0.34126 1.27952,-0.8589 1.25939,-1.15032 -0.0649,-0.93953 -3.6164,-5.0466 -5.61128,-6.489 -1.23554,-0.89336 -1.936859,-1.65607 -1.936859,-2.10643 0,-0.3883 -0.903736,-1.61926 -2.0083,-2.73547 -1.104565,-1.11622 -1.909287,-2.12849 -1.78827,-2.24951 0.596046,-0.59604 7.619759,5.65087 11.729359,10.43214 0.75048,0.87312 1.56558,1.70947 1.81135,1.85854 0.44523,0.27005 2.97458,-0.77311 7.59236,-3.13127 1.28889,-0.65819 2.45247,-1.19672 2.58572,-1.19672 0.29353,0 -0.0985,4.24942 -0.56014,6.07117 -0.27131,1.07076 -0.74588,1.58384 -2.61036,2.82223 -2.78642,1.85073 -2.88705,2.47608 -0.88173,5.47906 1.10795,1.65918 1.70557,3.21437 2.81849,7.33467 0.77683,2.87596 1.3387,5.30273 1.24861,5.39282 -0.0901,0.0901 -0.4955,-0.61273 -0.9009,-1.56182 -3.07817,-7.20629 -6.02041,-12.7391 -6.96773,-13.10262 -0.29471,-0.11309 -1.18599,0.13286 -1.98062,0.54656 -0.79463,0.4137 -1.87691,0.91073 -2.40507,1.10452 -0.53907,0.1978 -1.04619,0.70598 -1.15614,1.15857 -0.10773,0.44343 -0.15184,8.34686 -0.0981,17.56318 l 0.0978,16.75694 0.79164,0.11245 c 0.57201,0.0813 1.94221,-0.83749 4.93889,-3.31164 2.28098,-1.88325 4.44465,-3.88486 4.80814,-4.44802 0.6914,-1.07117 0.6698,-2.76487 -0.0723,-5.67015 -0.52716,-2.06383 0.12098,-1.55378 0.99483,0.78288 1.13763,3.04198 1.43589,3.18339 3.44614,1.63393 2.33844,-1.80243 6.43571,-5.90606 6.43571,-6.4457 0,-0.2469 -0.40826,-1.36625 -0.90724,-2.48744 -2.29192,-5.14981 -3.57523,-13.64346 -2.69449,-17.83356 0.21316,-1.01412 0.65738,-3.27261 0.98714,-5.01886 0.32977,-1.74625 1.22076,-4.92125 1.97999,-7.05556 1.3118,-3.68763 1.36862,-4.02086 1.143,-6.70277 -0.64505,-7.667806 -5.3954,-17.531967 -10.96858,-22.776429 -7.59698,-7.148897 -15.77527,-9.36879 -24.826707,-6.738895 -2.988991,0.868451 -4.991044,1.906771 -6.784562,3.518659 -4.113707,3.697111 -6.736585,6.364446 -7.5958,7.72456 -0.526002,0.83264 -1.077401,1.514178 -1.225331,1.514524 -0.419379,0.0011 -2.649488,3.648682 -3.270638,5.349649 -2.891998,7.919502 -2.739866,7.270602 -2.757209,11.760702 -0.01549,4.0081 0.05197,4.42103 1.267704,7.76111 1.700745,4.6726 2.157201,8.39619 1.944013,15.85847 -0.15192,5.31756 -0.284088,6.3609 -1.141694,9.01237 -0.533439,1.64923 -1.269072,3.5876 -1.634744,4.30747 -0.888711,1.74956 -0.840924,2.25575 0.301297,3.19139 0.531385,0.43528 1.444307,1.26767 2.028715,1.84975 0.584408,0.58208 1.697451,1.52348 2.473431,2.09199 0.775977,0.56852 1.887118,1.4658 2.469201,1.99397 5.541218,5.02795 12.236682,10.24227 13.009936,10.13194 l 0.748397,-0.10679 z"
         id="path924" /></g></g></svg>
